<svg xmlns="http://www.w3.org/2000/svg" xmlns:xlink="http://www.w3.org/1999/xlink" width="28" height="28" version="1.1" viewBox="0 0 28 28"><title>BAT</title><desc>Created with Sketch.</desc><defs><linearGradient id="linearGradient-1" x1="50%" x2="50%" y1="0%" y2="100%"><stop offset="0%" stop-color="#000"/><stop offset="97.834%" stop-color="#000" stop-opacity="0"/></linearGradient></defs><g id="Symbols" fill="none" fill-rule="evenodd" stroke="none" stroke-width="1"><g id="BAT"><g><path id="Fill-256" fill="#672893" d="M28,14 C28,21.73206 21.73206,28 14,28 C6.26808,28 0,21.73206 0,14 C0,6.26794 6.26808,0 14,0 C21.73206,0 28,6.26794 28,14"/><path id="Fill-258" fill="#FFF" d="M24.6449794,21.1606979 C22.3267147,24.2812226 18.6104663,26.3030303 14.4235399,26.3030303 C13.6114448,26.3030303 12.8176148,26.2271598 12.0476699,26.0810389 C6.15365779,24.9682719 1.6969697,19.7922193 1.6969697,13.5764601 C1.6969697,6.54720077 7.39428061,0.848484848 14.4235399,0.848484848 C21.4527992,0.848484848 27.1515152,6.54720077 27.1515152,13.5764601 C27.1515152,16.417388 26.2199943,19.0419445 24.6449794,21.1606979 Z"/><polygon id="Fill-260" fill="#FF4F00" points="15.273 11.197 11.536 17.311 11.631 17.311 5.999 20.364 5.939 20.364 15.273 5.091"/><polygon id="Fill-262" fill="#672893" points="5.939 19.515 11.076 16.97 17.779 16.97 22.906 19.511"/><polygon id="Fill-264" fill="#A01A63" points="18.134 17.315 18.162 17.315 14.424 11.199 14.424 5.091 23.758 20.364"/><polygon id="Fill-266" fill="#FFF" points="14.424 11.03 11.03 16.97 17.818 16.97"/><path id="Fill-269" fill="url(#linearGradient-1)" d="M6,20 L12.1971887,26.5615636 C12.9594596,26.7105306 13.7452342,26.7878788 14.5489495,26.7878788 C18.693528,26.7878788 22.3719267,24.7266921 24.6666667,21.5455319 L23.2063776,20 L6,20 Z" opacity=".1"/></g></g></g></svg>