<svg xmlns="http://www.w3.org/2000/svg" xmlns:xlink="http://www.w3.org/1999/xlink" width="28" height="28" version="1.1" viewBox="0 0 28 28"><title>dgd</title><desc>Created with Sketch.</desc><g id="Page-1" fill="none" fill-rule="evenodd" stroke="none" stroke-width="1"><g id="dgd"><g id="Vector"><path id="Path" fill="#FFF" d="M14,0 C6.26472,0 0,6.26471 0,14 C0,21.7353 6.26472,28 14,28 C21.7353,28 28,21.7353 28,14 C28.0123,6.26471 21.7351,0 14,0 Z" opacity=".9"/><polygon id="path1_fill-path" fill="#000" points="14.457 6.24 21.13 6.24 21.13 7.599 15.94 7.599 15.94 11.553 19.77 11.553 19.77 10.318 17.052 10.318 17.052 8.958 21.253 8.958 21.253 12.913 14.457 12.913"/><path id="path2_fill" fill="#000" fill-rule="nonzero" d="M17.9417,22.3037 L6.79616,22.3037 L6.79616,14.2719 L17.9418,14.2719 C20.1043,14.2719 21.8712,16.0882 21.8712,18.2878 C21.8712,20.4873 20.104,22.3035 17.9417,22.3035 L17.9417,22.3037 Z"/><path id="path0_fill-path" fill="#EAECEE" d="M17.63306,16.002 L8.64982,16.002 L8.64982,20.574 L17.6206,20.574 C18.8686,20.574 19.9559,19.53602 19.9559,18.2756 C19.9313,17.00258 18.9058,15.9894 17.63306,16.002 Z"/><polygon id="path1_fill-path" fill="#000" points="6.673 8.959 11.986 8.959 11.986 6.24 13.468 6.24 13.468 12.913 6.673 12.913 6.673 8.958"/><polygon id="path2_fill" fill="#F5A623" points="6.796 6.364 10.997 6.364 10.997 7.97 6.796 7.97"/><polygon id="path0_fill-path" fill="#FFF" points="8.032 10.318 11.863 10.318 11.863 11.554 8.032 11.554"/></g></g></g></svg>