<svg xmlns="http://www.w3.org/2000/svg" xmlns:xlink="http://www.w3.org/1999/xlink" width="28" height="28" version="1.1" viewBox="0 0 28 28"><title>dgd</title><desc>Created with Sketch.</desc><g id="Page-1" fill="none" fill-rule="evenodd" stroke="none" stroke-width="1"><g id="dgd"><g id="Vector"><path id="Path" fill="#000" d="M14,0 C6.26472,0 0,6.26471 0,14 C0,21.7353 6.26472,28 14,28 C21.7353,28 28,21.7353 28,14 C28.0123,6.26471 21.7351,0 14,0 Z" opacity=".9"/><polygon id="path1_fill-path" fill="#FFF" points="14.457 6.24 21.13 6.24 21.13 7.599 15.94 7.599 15.94 11.553 19.77 11.553 19.77 10.318 17.052 10.318 17.052 8.958 21.253 8.958 21.253 12.913 14.457 12.913"/><g id="Group-3" transform="translate(6.000000, 14.000000)"><path id="path2_fill" fill="#FFF" fill-rule="nonzero" d="M11.9417,8.3037 L0.79616,8.3037 L0.79616,0.2719 L11.9418,0.2719 C14.1043,0.2719 15.8712,2.0882 15.8712,4.2878 C15.8712,6.4873 14.104,8.3035 11.9417,8.3035 L11.9417,8.3037 Z"/><path id="path0_fill-path" fill="#000" d="M11.63306,2.002 L2.64982,2.002 L2.64982,6.574 L11.6206,6.574 C12.8686,6.574 13.9559,5.53602 13.9559,4.2756 C13.9313,3.00258 12.9058,1.9894 11.63306,2.002 Z"/></g><g id="Group-2" transform="translate(6.000000, 6.000000)"><polygon id="path1_fill-path" fill="#FFF" points="5.986 2.959 5.986 .24 7.468 .24 7.468 6.913 .673 6.913 .673 2.958"/><polygon id="path0_fill-path" fill="#000" points="2.032 4.318 5.863 4.318 5.863 5.554 2.032 5.554"/></g><polygon id="path2_fill" fill="#F5A623" points="6.796 6.364 10.997 6.364 10.997 7.97 6.796 7.97"/></g></g></g></svg>