<svg xmlns="http://www.w3.org/2000/svg" xmlns:xlink="http://www.w3.org/1999/xlink" width="24" height="28" version="1.1" viewBox="0 0 24 28"><title>iost</title><desc>Created with Sketch.</desc><g id="Wallet" fill="none" fill-rule="evenodd" stroke="none" stroke-width="1"><g id="Desktop" transform="translate(-370.000000, -390.000000)"><g id="iost" transform="translate(368.000000, 390.000000)"><g id="logo"><rect id="bound" width="28" height="28" x="0" y="0"/><g id="iost-shape" fill-rule="nonzero" transform="translate(2.057692, 0.500000)"><polygon id="Shape" fill="#FFF" points="24 6.75 12 0 0 6.75 0 20.25 12 27 24 20.25"/><polygon id="Shape" fill="#0A0A08" points="11.507 21.6 2.667 16.445 2.702 13.94 11.501 19.089 15.743 16.585 3.006 9.065 11.502 4.05 19.517 8.725 17.369 10 11.506 6.561 7.265 9.065 20 16.585"/><polygon id="Shape" fill="#0A0A08" points="8.821 13.5 6.667 12.202 11.179 9.45 13.333 10.748"/><polygon id="Shape" fill="#0A0A08" points="12.821 16.2 10.667 14.902 15.179 12.15 17.333 13.448"/></g></g></g></g></g></svg>