<svg xmlns="http://www.w3.org/2000/svg" xmlns:xlink="http://www.w3.org/1999/xlink" width="24" height="28" version="1.1" viewBox="0 0 24 28"><title>mco</title><desc>Created with Sketch.</desc><defs><linearGradient id="linearGradient-1" x1="-292.237%" x2="-11.649%" y1="107.014%" y2="-156.324%"><stop offset="0%" stop-color="#5E003F"/><stop offset="52%" stop-color="#C04372"/><stop offset="56%" stop-color="#CD5770"/><stop offset="62%" stop-color="#DF736E"/><stop offset="70%" stop-color="#ED886C"/><stop offset="78%" stop-color="#F7986B"/><stop offset="87%" stop-color="#FDA16A"/><stop offset="100%" stop-color="#FFA46A"/></linearGradient><linearGradient id="linearGradient-2" x1="-207.897%" x2="-33.81%" y1="82.634%" y2="-33.507%"><stop offset="0%" stop-color="#5E003F"/><stop offset="48%" stop-color="#C15866"/><stop offset="81%" stop-color="#EB8B69"/><stop offset="100%" stop-color="#FFA46A"/></linearGradient></defs><g id="Page-1" fill="none" fill-rule="evenodd" stroke="none" stroke-width="1"><g id="mco"><polygon id="path0_fill-path" fill="#FFF" points="11.947 .007 0 7.002 0 21 11.947 27.993 11.961 28 24 21 24 7.002 11.962 0"/><path id="path0_fill" fill="url(#linearGradient-1)" fill-rule="nonzero" d="M2.92370223,14.9761 L6.09002524,12.5942 L8.88888376,14.3923 L8.88888376,17.6251 L11.0064167,19.6764 L11.005427,20.6387 L8.96509246,22.5612 L7.24066773,22.5612 L2.92370223,14.9761 Z M12.9289544,20.641 L12.9247975,19.6726 L15.0351847,17.6255 L15.0351847,14.3923 L17.8039358,12.5723 L20.9642215,14.9761 L16.6687231,22.5392 L14.9673886,22.5392 L12.9289544,20.641 Z M9.92742029,14.3923 L8.89719743,11.6793 L15.0225162,11.6793 L14.0130973,14.3923 L14.311202,17.4236 L11.9474457,17.4288 L9.61176781,17.433 L9.92742029,14.3923 Z M11.9474457,10.937 L6.12632829,10.9342 L7.20852152,6.07192 L16.6586279,6.07192 L17.7989872,10.9405 L11.9474457,10.937 Z M11.9474457,0.00686014 L0,7.00168 L0,21.0004 L11.9474457,27.9927 L11.9613018,28 L24,20.9999 L24,7.00168 L11.9619946,0 L11.9474457,0.00686014 Z"/><path id="path1_fill" fill="url(#linearGradient-2)" fill-rule="nonzero" d="M12.9767798,20.641 L12.97264,19.6726 L15.0738186,17.6255 L15.0738186,14.3923 L17.8306041,12.5723 L20.9771281,14.9761 L16.7002742,22.5392 L15.005942,22.5392 L12.9767798,20.641 Z M12,0.00728015 L12,6.07206 L16.6893654,6.07206 L17.8257755,10.9407 L12,10.9376 L12,11.6796 L15.0607123,11.6796 L14.0556505,14.3923 L14.353517,17.4236 L12,17.4288 L12,27.9927 L12.0137964,28 L24,21.0004 L24,7.00168 L12.0135202,0 L12,0.00728015 Z"/></g></g></svg>