<svg xmlns="http://www.w3.org/2000/svg" xmlns:xlink="http://www.w3.org/1999/xlink" width="28" height="28" version="1.1" viewBox="0 0 28 28"><title>storm</title><desc>Created with Sketch.</desc><defs><radialGradient id="radialGradient-1" cx="50%" cy="50%" r="50%" fx="50%" fy="50%"><stop offset="0%" stop-color="#060505" stop-opacity=".71"/><stop offset="100%" stop-color="#00256E" stop-opacity="0"/></radialGradient><linearGradient id="linearGradient-2" x1="53.585%" x2="44.847%" y1="78.698%" y2="8.757%"><stop offset="0%" stop-color="#FFAE40"/><stop offset="43%" stop-color="#FFB340"/><stop offset="50%" stop-color="#FFBF40"/><stop offset="100%" stop-color="#FFDD40"/></linearGradient></defs><g id="Wallet" fill="none" fill-rule="evenodd" stroke="none" stroke-width="1"><g id="Desktop" fill-rule="nonzero" transform="translate(-450.000000, -390.000000)"><g id="storm" transform="translate(450.000000, 390.000000)"><circle id="Oval" cx="14" cy="14" r="14" fill="#00256E"/><circle id="Oval" cx="14" cy="14" r="14" fill="url(#radialGradient-1)"/><path id="Shape" fill="url(#linearGradient-2)" d="M20.7006711,2 L7.52751678,10.8979866 C7.52751678,10.8979866 7.09530201,11.2550336 7.52751678,11.5369128 C7.95973154,11.8187919 13.9073826,15.5020134 13.9073826,15.5020134 C13.9073826,15.5020134 14.1704698,15.5771812 13.9167785,15.7463087 L5,24.3718121 L19.7516779,14.2899329 C19.816253,14.242891 19.8544475,14.1678125 19.8544475,14.0879195 C19.8544475,14.0080265 19.816253,13.9329479 19.7516779,13.885906 L13.2308725,9.79865772 C13.2308725,9.79865772 15.7208054,7.19910515 20.7006711,2 Z"/></g></g></g></svg>