<svg xmlns="http://www.w3.org/2000/svg" xmlns:xlink="http://www.w3.org/1999/xlink" width="30" height="21" version="1.1" viewBox="0 0 30 21"><title>flags/korea</title><desc>Created with Sketch.</desc><defs><polygon id="path-1" points="0 .063 4.014 .063 4.014 4.245 0 4.245"/><polygon id="path-3" points=".093 .089 2.169 .089 2.169 2.25 .093 2.25"/><polygon id="path-5" points=".122 .058 2.198 .058 2.198 2.22 .122 2.22"/></defs><g id="Symbols" fill="none" fill-rule="evenodd" stroke="none" stroke-width="1"><g id="flags/korea"><rect id="Rectangle-Copy-2" width="30" height="21" x="0" y="0" fill="#FFF"/><g id="korea" transform="translate(6.000000, 3.000000)"><g id="Page-1"><path id="Fill-1" fill="#C2262D" d="M9.831096,3.551275 C7.664616,3.153275 5.598456,4.660275 5.216136,6.917025 C5.025576,8.045525 5.748456,9.121025 6.831816,9.320025 C7.914936,9.519025 8.948136,8.765775 9.138696,7.637275 C9.141336,7.627025 9.142056,7.615775 9.143496,7.605275 C9.142056,7.615775 9.141336,7.627025 9.138696,7.637275 C9.330216,6.508775 10.363656,5.755775 11.446056,5.954525 C12.529176,6.153275 13.252296,7.229525 13.061736,8.358025 C13.443816,6.101025 11.997336,3.949275 9.831096,3.551275"/><path id="Fill-3" fill="#005DAB" d="M13.061736,8.357925 C13.252296,7.229675 12.529176,6.153425 11.446296,5.954675 C10.362696,5.755925 9.330216,6.509175 9.138696,7.637175 C8.948136,8.765925 7.914936,9.519175 6.831816,9.320175 C5.748456,9.121175 5.025576,8.045425 5.216376,6.916925 C4.834536,9.173675 6.280536,11.325675 8.447256,11.723425 C10.614216,12.121175 12.679656,10.614175 13.061736,8.357925"/><polygon id="Fill-5" fill="#000" points=".671 4.182 4.083 .627 3.48 0 .068 3.554"/><polygon id="Fill-7" fill="#000" points="1.586 5.135 4.998 1.581 4.396 .953 .984 4.508"/><polygon id="Fill-9" fill="#000" points="2.501 6.088 5.913 2.534 5.311 1.907 1.899 5.461"/><g id="Group-13" transform="translate(0.000000, 11.024650)"><mask id="mask-2" fill="#fff"><use xlink:href="#path-1"/></mask><polygon id="Fill-11" fill="#000" points="4.014 3.618 .602 .063 0 .69 3.412 4.245" mask="url(#mask-2)"/></g><polygon id="Fill-14" fill="#000" points="5.845 12.736 2.433 9.182 1.831 9.809 5.242 13.363"/><polygon id="Fill-16" fill="#000" points="2.995 11.673 1.522 10.139 .92 10.766 2.393 12.301"/><polygon id="Fill-18" fill="#000" points="4.944 13.704 3.471 12.17 2.869 12.797 4.342 14.331"/><g id="Group-22" transform="translate(14.160000, 13.024650)"><mask id="mask-4" fill="#fff"><use xlink:href="#path-3"/></mask><polygon id="Fill-20" fill="#000" points="1.567 .089 .093 1.623 .696 2.25 2.169 .716" mask="url(#mask-4)"/></g><polygon id="Fill-23" fill="#000" points="14.811 12.16 13.338 13.694 13.941 14.321 15.413 12.787"/><polygon id="Fill-25" fill="#000" points="13.896 11.207 12.423 12.741 13.025 13.368 14.498 11.834"/><g id="Group-29" transform="translate(16.080000, 11.024650)"><mask id="mask-6" fill="#fff"><use xlink:href="#path-5"/></mask><polygon id="Fill-27" fill="#000" points="1.596 .058 .122 1.592 .725 2.22 2.198 .685" mask="url(#mask-6)"/></g><polygon id="Fill-30" fill="#000" points="16.761 10.129 15.287 11.664 15.889 12.291 17.363 10.757"/><polygon id="Fill-32" fill="#000" points="15.845 9.176 14.372 10.711 14.975 11.338 16.448 9.804"/><polygon id="Fill-34" fill="#000" points="17.308 4.508 13.895 .953 13.294 1.581 16.706 5.135"/><polygon id="Fill-36" fill="#000" points="14.449 3.437 12.98 1.907 12.378 2.534 13.847 4.064"/><polygon id="Fill-38" fill="#000" points="16.392 5.461 14.923 3.931 14.322 4.559 15.79 6.088"/><polygon id="Fill-40" fill="#000" points="16.28 1.53 14.811 0 14.209 .628 15.678 2.157"/><polygon id="Fill-42" fill="#000" points="18.223 3.554 16.755 2.024 16.152 2.652 17.621 4.181"/></g></g></g></g></svg>